<svg xmlns="http://www.w3.org/2000/svg" xmlns:xlink="http://www.w3.org/1999/xlink" version="1.1" x="0px" y="0px" viewBox="0 0 100 100" style="enable-background:new 0 0 100 100;" xml:space="preserve"><g><path d="M90,10c-4.7-4.7-12.3-4.7-17,0L50,33L27,10c-4.7-4.7-12.3-4.7-17,0c-4.7,4.7-4.7,12.3,0,17l23,23L10,73   c-4.7,4.7-4.7,12.3,0,17c2.3,2.3,5.4,3.5,8.5,3.5s6.1-1.2,8.5-3.5l23-23l23,23c2.3,2.3,5.4,3.5,8.5,3.5s6.1-1.2,8.5-3.5   c4.7-4.7,4.7-12.3,0-17L67,50l23-23C94.7,22.3,94.7,14.7,90,10z"></path></g></svg>