<svg xmlns="http://www.w3.org/2000/svg" xmlns:xlink="http://www.w3.org/1999/xlink" viewBox="0 0 16 14" version="1.1" x="0px" y="0px"><title>Bubble 426 气泡</title><desc>Created with Sketch.</desc><g stroke="none" stroke-width="1" fill="none" fill-rule="evenodd"><g fill="#000000" fill-rule="nonzero"><path d="M7.95467187,0.329953125 C3.60773438,0.329953125 0.0850625,2.88835937 0.0850625,6.04375 C0.0850625,8.0088125 1.28782813,9.7214375 3.36746875,10.7509375 C3.36746875,10.7630312 3.36371875,10.77175 3.36371875,10.7853437 C3.36371875,11.639125 2.8695,12.5779687 2.57990625,13.0610781 L2.58089062,13.0610781 C2.55690712,13.1144393 2.54445863,13.1722625 2.54435937,13.2307656 C2.54435937,13.4702344 2.74320312,13.6622344 2.99014062,13.6622344 C3.02701563,13.6622344 3.08614063,13.6548594 3.10773438,13.6548594 C3.1130625,13.6548594 3.11582813,13.6548594 3.11539063,13.6562812 C4.6524375,13.4131719 6.34275,12.0985937 6.6789375,11.7019687 C7.02426562,11.7516562 7.2576875,11.759125 7.54684375,11.759125 C7.66879687,11.759125 7.80053125,11.7577187 7.95465625,11.7577187 C12.300625,11.7577187 15.8243438,9.19984375 15.8243438,6.04384375 C15.8242656,2.888375 12.300625,0.32996875 7.95465625,0.32996875 L7.95467187,0.329953125 Z M7.95467187,11.0944844 L7.72170312,11.095375 L7.54684375,11.0959063 C7.27689063,11.0959063 7.09973437,11.088875 6.82346875,11.0489844 L6.272,10.9727188 L5.91857812,11.3870156 C5.75564062,11.57725 4.62782812,12.2370625 3.71235937,12.6615937 C3.89876562,12.1849844 4.03609375,11.3755625 4.04809375,10.8608125 L4.05298438,10.8323594 L4.05298438,10.1684531 L3.51742187,9.90345312 C1.77146875,9.03892187 0.770484375,7.63235937 0.770484375,6.04392187 C0.770484375,3.41840625 4.15778125,0.993328125 7.95475,0.993328125 C11.7517344,0.993328125 15.1390156,3.41840625 15.1390156,6.04390625 C15.1389375,8.6690625 11.7516406,11.0944844 7.95467187,11.0944844 Z"></path></g></g></svg>