<svg xmlns="http://www.w3.org/2000/svg" xmlns:xlink="http://www.w3.org/1999/xlink" version="1.1" x="0px" y="0px" viewBox="0 0 100 100" style="enable-background:new 0 0 100 100;" xml:space="preserve"><g><path d="M50,0C22.386,0,0,22.386,0,50s22.386,50,50,50s50-22.386,50-50S77.614,0,50,0z M79.645,78.268   c-14.236,14.929-37.048,16.754-53.373,5.124L41.753,67.91c-2.051-1.865-4.061-4.022-5.952-6.5   c-0.899-1.178-1.719-2.352-2.466-3.507L16.984,74.254C5.417,58.547,6.429,36.338,20.356,21.732   C34.745,6.644,57.896,4.938,74.253,16.985L43.19,48.048c3.046,5.431,6.05,8.392,8.265,10.161l31.938-31.938   C94.557,41.944,93.417,63.824,79.645,78.268z M43.739,36.776c0.546,2.775-0.65,3.612-0.65,3.612l-3.297,2.353   c-1.542,0.586-0.822,2.385-0.822,2.385c5.447,11.825,11.468,15.392,13.667,16.962c2.199,1.571,2.555,0.33,2.555,0.33l4.766-3.976   c1.457-1.567,2.518-0.2,2.518-0.2l8.877,6.563c1.508,1.056,0.615,3.115-0.256,5.049c-0.87,1.934-5.555,6.185-11.123,5.182   s-14.832-5.415-22.231-15.107c-7.399-9.693-9.211-19.215-9.211-19.215c-2.893-9.324,4.532-14.289,4.532-14.289   c3.145-2.96,6.818-0.861,6.818-0.861c1.646,0.296,1.761,1.1,1.761,1.1S43.195,33.999,43.739,36.776z"></path></g></svg>