<svg xmlns:x="http://ns.adobe.com/Extensibility/1.0/" xmlns:i="http://ns.adobe.com/AdobeIllustrator/10.0/" xmlns:graph="http://ns.adobe.com/Graphs/1.0/" xmlns="http://www.w3.org/2000/svg" xmlns:xlink="http://www.w3.org/1999/xlink" version="1.1" x="0px" y="0px" viewBox="0 0 64 64" enable-background="new 0 0 64 64" xml:space="preserve"><metadata><sfw xmlns="http://ns.adobe.com/SaveForWeb/1.0/"><slices></slices><sliceSourceBounds height="16384" width="16389" x="-8165" y="-8160" bottomLeftOrigin="true"></sliceSourceBounds><optimizationSettings><targetSettings targetSettingsID="0" fileFormat="PNG24Format"><PNG24Format transparency="true" filtered="false" interlaced="false" noMatteColor="false" matteColor="#FFFFFF"></PNG24Format></targetSettings></optimizationSettings></sfw></metadata><g><g><polygon points="56.414,43 43,43 43,56.414   "></polygon><path d="M41,42c0-0.553,0.447-1,1-1h15V8c0-0.552-0.447-1-1-1H8C7.448,7,7,7.448,7,8v48c0,0.553,0.448,1,1,1h33V42z M16,15h32    c0.553,0,1,0.448,1,1s-0.447,1-1,1H16c-0.552,0-1-0.448-1-1S15.448,15,16,15z M16,23h32c0.553,0,1,0.448,1,1s-0.447,1-1,1H16    c-0.552,0-1-0.448-1-1S15.448,23,16,23z M16,31h32c0.553,0,1,0.448,1,1s-0.447,1-1,1H16c-0.552,0-1-0.448-1-1S15.448,31,16,31z     M16,39h18c0.553,0,1,0.447,1,1s-0.447,1-1,1H16c-0.552,0-1-0.447-1-1S15.448,39,16,39z M34,49H16c-0.552,0-1-0.447-1-1    s0.448-1,1-1h18c0.553,0,1,0.447,1,1S34.553,49,34,49z"></path></g></g></svg>