<svg xmlns="http://www.w3.org/2000/svg" xmlns:xlink="http://www.w3.org/1999/xlink" xml:space="preserve" style="shape-rendering:geometricPrecision;text-rendering:geometricPrecision;image-rendering:optimizeQuality;" viewBox="0 0 100 100" x="0px" y="0px" fill-rule="evenodd" clip-rule="evenodd"><defs><style type="text/css">
   
    .fil0 {fill:black}
   
  </style></defs><g><path class="fil0" d="M13.7836 20.0813c0.610635,-4.4457 5.23587,-7.3914 9.85401,-11.7816 2.54766,-1.78466 5.74847,-3.90121 8.21345,-3.14412l9.18669 23.8691c-0.942527,3.73231 -3.89649,5.11303 -6.48076,5.85595 -4.56972,4.01814 -3.1205,6.49021 -0.745281,10.6654l15.2375 21.762c3.11105,3.65908 4.93823,5.86658 10.2769,2.94569 1.58269,-2.17325 3.8894,-4.47641 7.71975,-4.08665l19.2864 16.7966c-0.131103,2.57482 -3.2138,4.85909 -5.76264,6.64257 -5.70595,2.83821 -10.056,6.17721 -14.4415,5.22996 -24.4585,-5.22524 -54.5945,-48.3122 -52.3445,-74.7549z"></path></g></svg>