<svg xmlns="http://www.w3.org/2000/svg" xmlns:xlink="http://www.w3.org/1999/xlink" version="1.1" x="0px" y="0px" viewBox="0 0 100 100" enable-background="new 0 0 100 100" xml:space="preserve"><g><path d="M63.374,73.743H36.625c-5.717,0-10.369-4.652-10.369-10.369h11.339L21.298,42.336L5,63.374h11.339   c0,11.186,9.101,20.287,20.287,20.287h26.749c11.186,0,20.287-9.101,20.287-20.287h-9.918   C73.743,69.091,69.091,73.743,63.374,73.743z"></path><path d="M36.625,26.257h26.749c5.687,0,10.315,4.603,10.364,10.279H62.405l16.298,21.038L95,36.535H83.659   C83.61,25.39,74.53,16.338,63.374,16.338H36.625c-11.186,0-20.287,9.101-20.287,20.287h9.918   C26.257,30.908,30.908,26.257,36.625,26.257z"></path></g></svg>