<svg xmlns:dc="http://purl.org/dc/elements/1.1/" xmlns:cc="http://creativecommons.org/ns#" xmlns:rdf="http://www.w3.org/1999/02/22-rdf-syntax-ns#" xmlns:svg="http://www.w3.org/2000/svg" xmlns="http://www.w3.org/2000/svg" xmlns:sodipodi="http://sodipodi.sourceforge.net/DTD/sodipodi-0.dtd" xmlns:inkscape="http://www.inkscape.org/namespaces/inkscape" version="1.1" x="0px" y="0px" viewBox="0 0 100 100"><g transform="translate(0,-952.36218)"><path style="text-indent:0;text-transform:none;direction:ltr;block-progression:tb;baseline-shift:baseline;color:#000000;enable-background:accumulate;" d="m 53.136801,964.60571 a 1.9978938,2.0025091 0 0 0 -1.997701,2.00231 l 0,15.80226 a 1.9978938,2.0025091 0 0 0 1.997701,2.00231 l 3.7432,0 a 1.9978938,2.0025091 0 0 0 1.9977,-2.00231 l 0,-15.80226 a 1.9978938,2.0025091 0 0 0 -1.9977,-2.00231 l -3.7432,0 z" fill="#000000" fill-opacity="1" fill-rule="evenodd" stroke="none" marker="none" visibility="visible" display="inline" overflow="visible"></path><path style="text-indent:0;text-transform:none;direction:ltr;block-progression:tb;baseline-shift:baseline;color:#000000;enable-background:accumulate;" d="m 32.975401,1028.4585 a 1.9978938,2.0025091 0 0 0 -1.997701,2.0023 l 0,3.6714 a 1.9978938,2.0025091 0 0 0 1.997701,2.0023 l 34.0305,0 a 1.9978938,2.0025091 0 0 0 1.9977,-2.0023 l 0,-3.6714 a 1.9978938,2.0025091 0 0 0 -1.9977,-2.0023 l -34.0305,0 z" fill="#000000" fill-opacity="1" fill-rule="evenodd" stroke="none" marker="none" visibility="visible" display="inline" overflow="visible"></path><path style="text-indent:0;text-transform:none;direction:ltr;block-progression:tb;baseline-shift:baseline;color:#000000;enable-background:accumulate;" d="m 32.975401,1014.3763 a 1.9978938,2.0025091 0 0 0 -1.997701,2.0023 l 0,3.6714 a 1.9978938,2.0025091 0 0 0 1.997701,2.0023 l 34.0305,0 a 1.9978938,2.0025091 0 0 0 1.9977,-2.0023 l 0,-3.6714 a 1.9978938,2.0025091 0 0 0 -1.9977,-2.0023 l -34.0305,0 z" fill="#000000" fill-opacity="1" fill-rule="evenodd" stroke="none" marker="none" visibility="visible" display="inline" overflow="visible"></path><path style="text-indent:0;text-transform:none;direction:ltr;block-progression:tb;baseline-shift:baseline;color:#000000;enable-background:accumulate;" d="m 9.0000005,958.36217 a 2.0002,2.0002 0 0 0 -2,2 l 0,84.00003 a 2.0002,2.0002 0 0 0 2,2 l 81.9999995,0 a 2.0002,2.0002 0 0 0 2,-2 l 0,-70.18753 a 2.0002,2.0002 0 0 0 -0.593801,-1.40625 L 78.625,958.95592 a 2.0002,2.0002 0 0 0 -1.4063,-0.59375 l -68.2186995,0 z m 23.9686995,4 34.0313,0 0,25.0625 -34.0313,0 0,-25.0625 z m -8.25,45.31253 50.5313,0 0,34.6875 -50.5313,0 0,-34.6875 z" fill="#000000" fill-opacity="1" fill-rule="evenodd" stroke="none" marker="none" visibility="visible" display="inline" overflow="visible"></path></g></svg>